# xmcd
#
# Track frame offsets:
#	150
#	30155
#	56250
#	74130
#	85872
#	112797
#	131392
#	159416
#	185248
#	206245
#	222713
#
# Disc length: 3229 seconds
#
# Revision: 2
# Processed by: cddbd v1.5.2PL0 Copyright (c) Steve Scherf et al.
# Submitted via: EasyCDDAExtractor 2011.3.0.0
#
DISCID=9d0c9b0b
DTITLE=Thai Hoa - Phuc Am Buon
DYEAR=2011
DGENRE=Ballad
TTITLE0=Phuc am buon
TTITLE1=Diem xua
TTITLE2=Dem thay ta la thac do
TTITLE3=Cat bui
TTITLE4=Loi thien thu goi
TTITLE5=Thanh pho mua Xuan
TTITLE6=Dau chan dia dang
TTITLE7=Chieu tren que huong toi
TTITLE8=Chiec la thu phai
TTITLE9=Mot coi di ve
TTITLE10=Ve noi cuoi troi
EXTD=
EXTT0=
EXTT1=
EXTT2=
EXTT3=
EXTT4=
EXTT5=
EXTT6=
EXTT7=
EXTT8=
EXTT9=
EXTT10=
PLAYORDER=
